# xmcd CD database file
# Copyright (C) 1993-1999 CDDB, Inc.
#
# Track frame offsets:
#	150
#	16651
#	34697
#	60722
#	102737
#	120012
#	138796
#	157004
#	178195
#	208808
#	216680
#	243996
#	268724
#	299560
#	323215
#
# Disc length: 4576
#
# Revision: 1
# Processed by: cddbd v1.5.1PL0 Copyright (c) Steve Scherf et al.
# Submitted via: CoolCD_Studio 1.3.1
#
DISCID=e411de0f
DTITLE=BARRELHOUSE - Live - As Long As It Is, It's Not What It Will
DTITLE=Have Been (+Bonus)
DYEAR=2005
DGENRE=
TTITLE0=Three Times A Fool
TTITLE1=Skin And Bones
TTITLE2=Sally Go Round The Roses
TTITLE3=If You Really Wanna Leave
TTITLE4=The Other Side
TTITLE5=Coming Home No More
TTITLE6=I'm Torn Down
TTITLE7=Can't Believe
TTITLE8=Hard Time Killing Floor
TTITLE9=Straight To The Airport
TTITLE10=I Feel Like Breaking Up Somebody's Home Tonight
TTITLE11=Tell Me More
TTITLE12=Let Me Love You
TTITLE13=Beware !
TTITLE14=I'll Be Thinkin' Of You
EXTD=
EXTT0=
EXTT1=
EXTT2=
EXTT3=
EXTT4=
EXTT5=
EXTT6=
EXTT7=
EXTT8=
EXTT9=
EXTT10=
EXTT11=
EXTT12=
EXTT13=
EXTT14=
PLAYORDER=
